<?xml version="1.0" encoding="UTF-8"?>
<svg version="1.1" xmlns="http://www.w3.org/2000/svg" width="512" height="512">
<path d="M0 0 C1.83532036 -0.00856522 1.83532036 -0.00856522 3.7077179 -0.01730347 C5.07658376 -0.01854905 6.44544974 -0.0196741 7.8143158 -0.02069092 C9.24661386 -0.02531729 10.67891068 -0.03034171 12.11120605 -0.03573608 C16.01705477 -0.04889482 19.92288627 -0.05531382 23.82875371 -0.05974674 C26.27369051 -0.06267684 28.71862261 -0.06678192 31.16355705 -0.07125092 C38.82556769 -0.08494586 46.48756757 -0.09459809 54.1495896 -0.09845281 C62.96811649 -0.10291406 71.78648687 -0.12036288 80.60496622 -0.1494534 C87.43235936 -0.17118481 94.2597089 -0.18116344 101.08713621 -0.18249393 C105.15770092 -0.18353543 109.22811893 -0.18929981 113.29864693 -0.20731354 C117.14247998 -0.22398924 120.98605931 -0.22585703 124.829916 -0.21717453 C126.2277406 -0.21641397 127.62557993 -0.2206142 129.02336884 -0.23063278 C139.18595922 -0.29909161 148.47608472 0.97943256 158.36875916 3.14044189 C159.20476686 3.32186611 160.04077456 3.50329033 160.90211582 3.69021225 C177.45571302 7.55327664 192.95525765 15.51312881 205.36875916 27.14044189 C206.14219666 27.82364502 206.91563416 28.50684814 207.71250916 29.21075439 C219.45144864 40.10545508 226.97455955 54.90844746 231.36875916 70.14044189 C231.5497113 70.75435791 231.73066345 71.36827393 231.917099 72.00079346 C233.81469284 79.268391 233.73644912 86.54458909 233.74375916 94.01544189 C233.76825134 95.29419189 233.79274353 96.57294189 233.81797791 97.89044189 C233.8771309 117.72641424 227.4642135 135.72374919 220.99375916 154.26544189 C220.18899064 156.59727118 219.38529398 158.92947064 218.58262634 161.26202393 C216.96264216 165.96608707 215.33712249 170.66818145 213.70762634 175.36895752 C211.53948675 181.63286742 209.40436456 187.90749397 207.28282166 194.18731689 C206.65445363 196.04394187 206.02603697 197.90055039 205.39756775 199.75714111 C204.52267025 202.34212196 203.64844553 204.92731295 202.77726746 207.5135498 C193.20747039 235.8908999 193.20747039 235.8908999 186.05625916 247.82794189 C185.58333435 248.62973877 185.11040955 249.43153564 184.62315369 250.25762939 C180.63184949 256.91829425 176.25146882 263.09601418 171.36875916 269.14044189 C170.241474 270.57130127 170.241474 270.57130127 169.09141541 272.03106689 C164.50269743 277.77284734 159.65806671 283.04464559 154.36875916 288.14044189 C153.57469666 288.93579346 152.78063416 289.73114502 151.96250916 290.55059814 C119.76502127 322.69959584 68.08251924 352.14044189 21.36875916 352.14044189 C21.98392625 348.41721627 23.04643989 345.3163152 24.62657166 341.89434814 C25.08346375 340.90007812 25.54035583 339.90580811 26.01109314 338.88140869 C26.50037292 337.83251465 26.98965271 336.78362061 27.49375916 335.70294189 C28.24798157 334.07062622 28.24798157 334.07062622 29.0174408 332.40533447 C31.52737049 326.99868051 34.08676511 321.6319675 36.80625916 316.32794189 C40.83661345 308.42299579 44.35742132 300.28973658 47.93101501 292.17047119 C51.32756777 284.45348982 54.81083238 276.78435758 58.36875916 269.14044189 C57.66493103 269.07574707 56.96110291 269.01105225 56.23594666 268.94439697 C34.10709723 266.8409285 14.11712544 262.83054068 -4.63124084 250.14044189 C-4.63124084 249.48044189 -4.63124084 248.82044189 -4.63124084 248.14044189 C-5.21389709 247.87489502 -5.79655334 247.60934814 -6.39686584 247.33575439 C-9.90932123 245.45671357 -12.6631168 242.76609009 -15.63124084 240.14044189 C-18.7441548 247.67462669 -21.49267863 255.30370984 -24.13124084 263.01544189 C-24.44788193 263.93834015 -24.44788193 263.93834015 -24.7709198 264.87988281 C-33.2511845 289.60048042 -41.49682543 314.38855983 -49.24232483 339.34991455 C-49.46362061 340.06155762 -49.68491638 340.77320068 -49.91291809 341.50640869 C-50.50980384 343.4276651 -51.10418057 345.34970048 -51.69837952 347.27178955 C-52.63124084 350.14044189 -52.63124084 350.14044189 -53.63124084 352.14044189 C-61.49652572 352.24195023 -69.36164135 352.31195348 -77.22743225 352.36016846 C-79.9028746 352.37801015 -82.57746101 352.40755238 -85.25282288 352.44219971 C-89.10042656 352.49077695 -92.94744871 352.51342554 -96.79530334 352.53106689 C-97.98926727 352.55171204 -99.1832312 352.57235718 -100.41337585 352.59362793 C-110.98597047 352.59647812 -110.98597047 352.59647812 -115.63124084 348.14044189 C-119.92248667 342.52771593 -119.52293123 336.91411612 -118.63124084 330.14044189 C-117.1701462 324.2360881 -115.02206297 318.54162949 -112.90837097 312.84588623 C-111.49546009 309.03832712 -110.12823509 305.21479622 -108.75686646 301.39212036 C-108.05546848 299.43919958 -107.35163731 297.487151 -106.64538574 295.53598022 C-103.51058875 286.86888397 -100.5737355 278.1448313 -97.69374084 269.39044189 C-96.71911599 266.44188175 -95.74200859 263.49414896 -94.76405334 260.54669189 C-94.51546066 259.79716751 -94.26686798 259.04764313 -94.01074219 258.27540588 C-90.74992637 248.46242487 -87.40698289 238.67729024 -84.06874084 228.89044189 C-83.7372403 227.91842834 -83.40573975 226.94641479 -83.06419373 225.94494629 C-82.56213913 224.47284698 -82.56213913 224.47284698 -82.04994202 222.9710083 C-81.35958583 220.94675969 -80.66923763 218.92250835 -79.97889709 216.89825439 C-79.63003952 215.87543365 -79.28118195 214.85261292 -78.92175293 213.79879761 C-75.00988205 202.32539017 -71.11847653 190.84505186 -67.22654724 179.36486816 C-61.252238 161.74299411 -55.27114765 144.12350495 -49.25624084 126.51544189 C-48.97555756 125.69368469 -48.69487427 124.87192749 -48.40568542 124.02526855 C-45.36576376 115.1267069 -42.31976142 106.23024836 -39.26795959 97.33575439 C-38.15951557 94.10411071 -37.05144807 90.87233821 -35.94374084 87.64044189 C-35.53906082 86.45975632 -35.53906082 86.45975632 -35.12620544 85.25521851 C-31.38674765 74.33867088 -27.70366335 63.40471058 -24.06874084 52.45294189 C-20.36380849 41.29360989 -16.61963227 30.14829969 -12.8190155 19.02114868 C-12.27997854 17.44224986 -11.7419428 15.86300884 -11.2049408 14.28341675 C-10.46200347 12.09930848 -9.71519955 9.91656338 -8.96717834 7.73419189 C-8.74481003 7.07863815 -8.52244171 6.42308441 -8.29333496 5.74766541 C-6.36166281 0.13977005 -5.91335536 0.01644409 0 0 Z M114.36875916 50.14044189 C114.29399353 51.41016846 114.21922791 52.67989502 114.14219666 53.98809814 C112.91132676 71.24553387 108.56707164 88.10852505 95.18125916 100.20294189 C92.70646136 102.26443334 90.29116541 103.78615607 87.36875916 105.14044189 C87.89985291 104.02669189 88.43094666 102.91294189 88.97813416 101.76544189 C94.59308726 89.73548446 99.78571352 77.67408551 99.36875916 64.14044189 C95.19233641 67.24715418 91.05782215 70.38774264 86.99375916 73.64044189 C79.78632488 79.23940276 72.00788965 83.37681431 63.83409119 87.39215088 C48.92338672 94.71251041 48.92338672 94.71251041 35.36875916 104.14044189 C35.36875916 104.80044189 35.36875916 105.46044189 35.36875916 106.14044189 C34.70875916 106.14044189 34.04875916 106.14044189 33.36875916 106.14044189 C33.36875916 106.80044189 33.36875916 107.46044189 33.36875916 108.14044189 C32.70875916 108.14044189 32.04875916 108.14044189 31.36875916 108.14044189 C19.00304156 124.73512784 16.84965845 143.08311117 18.64219666 163.21075439 C20.18553534 172.4999061 24.99022093 180.32408945 32.36875916 186.14044189 C45.34357961 194.85181424 59.94386895 197.16786009 75.24375916 194.26544189 C89.0895275 190.30160675 100.49067776 180.21704329 110.36875916 170.14044189 C111.61786072 168.87200439 111.61786072 168.87200439 112.89219666 167.57794189 C125.39451177 154.26489645 133.05149663 139.08707079 136.36875916 121.14044189 C136.64719666 119.69024658 136.64719666 119.69024658 136.93125916 118.21075439 C140.33859279 94.29857374 131.44772137 73.34228981 118.66563416 53.72247314 C118.23766541 53.20040283 117.80969666 52.67833252 117.36875916 52.14044189 C116.70875916 52.14044189 116.04875916 52.14044189 115.36875916 52.14044189 C114.87375916 51.15044189 114.87375916 51.15044189 114.36875916 50.14044189 Z M6.36875916 184.14044189 C-4.01497321 202.37223823 -4.01497321 202.37223823 -8.63124084 222.14044189 C-7.97124084 222.14044189 -7.31124084 222.14044189 -6.63124084 222.14044189 C-6.37085022 222.72309814 -6.11045959 223.30575439 -5.84217834 223.90606689 C0.76035176 236.08879986 15.80656994 243.1351062 28.36875916 247.14044189 C29.29172791 247.46012939 30.21469666 247.77981689 31.16563416 248.10919189 C42.83467539 251.51529042 55.34335224 250.40300536 67.36875916 250.14044189 C72.76605899 237.38318773 77.08641653 224.30643722 81.36875916 211.14044189 C78.44894822 209.68053643 76.43619165 210.55867743 73.24375916 211.14044189 C54.97678137 213.84320902 36.39002939 210.26654136 21.36875916 199.14044189 C10.87027376 190.14126627 10.87027376 190.14126627 8.36875916 184.14044189 C7.70875916 184.14044189 7.04875916 184.14044189 6.36875916 184.14044189 Z " fill="#000000" transform="translate(198.63124084472656,79.85955810546875)"/>
</svg>
