<svg xmlns="http://www.w3.org/2000/svg" viewBox="0 0 650.57 721.9"><defs><style>.cls-1{fill:#fff;}</style></defs><title>Asset 1</title><g id="Layer_2" data-name="Layer 2"><g id="Layer_1-2" data-name="Layer 1"><path class="cls-1" d="M232.39,329.1a95.3,95.3,0,0,0-12.29,20.11,5.36,5.36,0,0,0,6.56,7.3l.11,0q2.55-.84,5.14-1.62c5.12-1.55,10.33-2.92,15.55-4.11,6.43-1.47,12.75-2.94,18.8-4.4l.82-.2.63-.16.65-.09c2.06-.29,4.13-.57,6.19-.83a23.23,23.23,0,0,0,15.74-9.21l12-16.21q-1.83,9.58-3.5,19.25a2.87,2.87,0,0,0,3.06,3.34c3.25-.26,6.51-.5,9.76-.7q8.15-.51,16.28-.79l2.4-.08,7.7-.2a2.86,2.86,0,0,0,2.79-3.08l-2.49-33.45-.29-.38a24.18,24.18,0,0,1-21.73,3.26c-6.15-1.94-12.93-8.7-14.89-14.85a24.19,24.19,0,0,1,3.37-22c.39-.52.79-1,1.21-1.52a24,24,0,0,1,27.86-6.18l1,.46a24.1,24.1,0,0,1,7.86,6.34c.43.53.84,1.07,1.22,1.64a23.74,23.74,0,0,1,3.3,7.27l.51.12-.43.16a24,24,0,0,1-9,25.1l0,.56,26.23,34.84a3.38,3.38,0,0,0,2.7,1.35q7.37,0,14.8.09,4.94.06,9.84.15,10.91.22,21.86.55l9.53.31a3.38,3.38,0,0,0,2.94-5.23c-1.59-2.46-3.27-4.87-5-7.2a111.68,111.68,0,0,0-7.95-9.37L461.52,337c7.81,2.84,15.44,6.46,23.81,6.73l32.36,1.08,16.19.54c2.93.1,19,4.39,14.72-3.15A157.9,157.9,0,0,0,491.08,284,172.94,172.94,0,0,0,427,262.57l209.85-56.95a6.14,6.14,0,0,0,1.32-11.32L622.88,186c-27.68-15-60-23-93.56-23-36.28,0-73.52,9.12-107.7,26.36q-8.22,4.15-16.11,8.88l93-109.6a6.14,6.14,0,0,0-5.34-10.08l-17.34,1.88c-40.3,4.34-73.85,21.92-99.73,52.25a181.84,181.84,0,0,0-16.95,23.52l34-148.69A6.14,6.14,0,0,0,384,.9L369.93,9.38c-32.62,19.68-57.28,57.18-67.66,102.88a215.65,215.65,0,0,0-5,58.41,203.85,203.85,0,0,0-25.39-38.51C244.7,100,210.65,82.25,176,82.25c-1.42,0-2.86,0-4.28.09l-14.31.6A6.14,6.14,0,0,0,153,93.07L243.49,199q-8.46-5.11-17.23-9.52c-33.68-16.9-70.49-25.84-106.46-25.84a210.14,210.14,0,0,0-98.47,24L3.3,197a6.14,6.14,0,0,0,1.76,11.48l20,3.59c56,10.05,109.24,25.46,160.7,40.36,12,3.47,24.11,7,36.35,10.45-56.77,6.79-101.51,36.56-122.29,82.49L93,360.53a6.14,6.14,0,0,0,7.71,8.3l144.35-53A102.47,102.47,0,0,0,232.39,329.1Z"/><path class="cls-1" d="M264.34,656.48a51.15,51.15,0,0,1-25.22,19q-9.15,1.92-13.46-.16c-2.87-1.4-4.46-3.43-4.75-6.12s.57-5.64,2.63-8.9a22.73,22.73,0,0,1,8.78-7.92c4.55-2.53,7.5-5.36,8.86-8.54a11.35,11.35,0,0,0,.36-8.95,14.91,14.91,0,0,0-6.07-7,17,17,0,0,0-10.54-2.45A27.85,27.85,0,0,0,212,630q-6.78,4.21-13.22,14a38,38,0,0,0-6.29,18.22,41.9,41.9,0,0,0,2.57,18.88,39.15,39.15,0,0,0,10.77,15.42,30.24,30.24,0,0,0,18,7.5q16.58,2.38,30-3.34a77.74,77.74,0,0,0,13-7.07l-2.3-37.49C264.51,656.24,264.42,656.36,264.34,656.48Z"/><path class="cls-1" d="M357.92,567.27c.13-.29.26-.58.39-.89l-7.23-94a3.42,3.42,0,0,0-.21.43l-1.87-25-4.12-55.19c-4.4-.23-8.79-.39-13.18-.53l-.82,0c-4.19-.12-8.41-.18-12.52-.18-4.88,0-9.74.09-14.53.25q-6.75.24-13.28.7-3.15,23.88-5.4,47.93T281.48,489c-2.3,39.95-2.84,80.77-1.62,122.1q.17,5.91.39,11.83h0l4.38,71.43v0q.25,3.24.56,6.5c.07.89.15,1.78.24,2.68l1,10.89,83,7.44-9.57-128.26Z"/><path class="cls-1" d="M644.91,341.76a6.15,6.15,0,0,0-5,.64,164.31,164.31,0,0,1-46.28,13.69q-16.32,2.3-33,3.33v.13l-4.61-.16q-19.15-.72-38.16-1.49l-5.61-.23q-30.31-.6-60.78-2.11c-5.51-.27-11-.51-16.52-.75-4.88-.18-9.74-.37-14.63-.54q-14.67-.51-29.38-.8h-.39q-8.1-.17-16.18-.21c-2.76,0-5.53,0-8.29,0q-12.57,0-25.15.26c-3.77.09-7.55.18-11.32.29l-1.81.06q-9.75.3-19.49,1c-4.47.3-8.95.67-13.42,1.08q-11.17,1-22.28,2.52c-1.17.14-2.32.3-3.47.47q-8,1.92-16,3.78l-3.85.87q-9.9,2.25-19.51,5.4c-1.44.48-2.87,1-4.29,1.5a135.1,135.1,0,0,0-14.32,6.16l-.29.15A84.93,84.93,0,0,0,194.1,388a56.56,56.56,0,0,0-12,14.7,58.17,58.17,0,0,0-6.61,17.71,54,54,0,0,0-.29,18.76A47.41,47.41,0,0,0,203,473.82a54.28,54.28,0,0,0,26.27,3.6,53.59,53.59,0,0,0,24.61-9.3,39.89,39.89,0,0,0,12.34-13.3,43.39,43.39,0,0,0,3.57-8c.6-4.21.05-6.95-1.65-8.25a3.2,3.2,0,0,0-.45-.3,11.34,11.34,0,0,0-6.91-1.35,95.07,95.07,0,0,0-11.25,1.5,45.4,45.4,0,0,1-12.76.6,27.91,27.91,0,0,1-12.16-4.21,19.83,19.83,0,0,1-5-4.53,34.27,34.27,0,0,1-4.72-8.07,35.62,35.62,0,0,1,12.59-22.66,72.6,72.6,0,0,1,24.48-13.1l1.79-.56a144.22,144.22,0,0,1,23.86-5q5.65-.75,11.71-1.15l2.07-.14q6.57-.42,13.3-.6,12.27-.37,25.07,0h.52q6.33.18,12.66.49,9.4.43,18.84,1.15,5.42.4,10.83.91,11.19,1,21.65,2.19a7.87,7.87,0,0,1,3.06,1,8.28,8.28,0,0,1,2.41,2.13,8,8,0,0,1-.77,10.44A128,128,0,0,0,387,411a293,293,0,0,0-20.52,30.75l5.72,74.3a3.37,3.37,0,0,0,5.33-1.51c1.92-5.66,5.95-17.77,7.95-23.85q4.67-14.11,9.92-29t11.26-28.36q5.28-11.91,11.16-22.41c.52-.95,1.05-1.88,1.59-2.81,3.31-5.67,7.31-14.64,13.43-17.62a21.64,21.64,0,0,1,7.73-1.67c35.08-2.8,69.79,5.44,104.82,5.32A161,161,0,0,0,635,366.88c3.19-2.15,10.1-7.93,13.54-13.52C651.53,348.53,651.88,343.83,644.91,341.76Z"/></g></g></svg>
